<?xml version="1.0" encoding="UTF-8" standalone="yes"?>
<!-- Created with sK1/UniConvertor (http://sk1project.org/) -->
<svg xmlns="http://www.w3.org/2000/svg" xmlns:xlink="http://www.w3.org/1999/xlink"
  width="158.4pt" height="158.4pt" viewBox="0 0 158.4 158.4"
  fill-rule="evenodd">
<g>
<path style="stroke:none; fill:#111111" d="M 0 0L 0 158.4L 158.4 158.4L 158.4 0L 0 0z"/>
<path style="stroke:none; fill:#3d3d3d" d="M 85.6 67.2L 85.6 72.8L 86.4 72.8C 86.3848 70.7654 86.388 69.0652 85.6 67.2z"/>
<path style="stroke:none; fill:#ededed" d="M 86.4 67.2C 86.4 71.4446 85.2536 77.7182 87.3432 81.5536C 89.9032 86.252 98.5816 87.0728 101.457 82.2288C 103.713 78.4292 102.4 71.4856 102.4 67.2L 100.8 67.2C 100.8 70.7498 102.573 81.8912 96.8312 81.8912C 91.392 81.8912 92.8 70.5493 92.8 67.2L 86.4 67.2z"/>
<path style="stroke:none; fill:#cecece" d="M 92.8 67.2L 92.8 78.4L 93.6 78.4C 93.6 74.767 94.2152 70.5732 92.8 67.2z"/>
<path style="stroke:none; fill:#838383" d="M 100 67.2L 100 80L 100.8 80C 100.8 75.9278 101.586 70.979 100 67.2z"/>
<path style="stroke:none; fill:#d4d4d4" d="M 102.4 67.2L 102.4 80L 103.2 80C 103.938 76.2162 103.898 70.7686 102.4 67.2z"/>
<path style="stroke:none; fill:#202020" d="M 103.2 67.2L 103.2 75.2L 104 75.2C 104 72.4685 104.262 69.7306 103.2 67.2z"/>
<path style="stroke:none; fill:#4d4d4d" d="M 31.2 72.8L 32 73.6L 31.2 72.8z"/>
<path style="stroke:none; fill:#929292" d="M 32 72.8L 32.8 73.6L 32 72.8z"/>
<path style="stroke:none; fill:#ededed" d="M 39.2 83.2C 36.1545 83.4608 34.9776 82.712 33.6 80C 36.5564 79.6264 39.4118 79.2247 42.4 79.2C 41.3004 87.6736 52.2274 84.7712 57.6 84.8C 57.6 79.0042 52.703 66.7672 45.6 75.2C 48.9491 74.6494 50.3473 75.4618 52 78.4C 48.6162 77.5966 45.7994 77.7693 42.4 78.4C 39.6274 72.6434 26.7654 70.2505 26.7654 79.2C 26.7654 84.9024 36.027 87.3632 39.2 83.2z"/>
<path style="stroke:none; fill:#bbbbbb" d="M 36 72.8L 36.8 73.6L 36 72.8z"/>
<path style="stroke:none; fill:#838383" d="M 36.8 72.8L 37.6 73.6L 36.8 72.8z"/>
<path style="stroke:none; fill:#333333" d="M 45.3334 73.0666C 44.9778 73.4222 45.8222 73.3778 45.8666 73.3334C 46.2222 72.9778 45.3778 73.0222 45.3334 73.0666z"/>
<path style="stroke:none; fill:#696969" d="M 46.4 72.8L 47.2 73.6L 46.4 72.8z"/>
<path style="stroke:none; fill:#cecece" d="M 47.2 72.8L 47.2 73.6L 49.6 73.6C 48.6014 73.0522 48.3613 73.001 47.2 72.8z"/>
<path style="stroke:none; fill:#bbbbbb" d="M 51.7334 73.0666C 51.3778 73.4222 52.2222 73.3778 52.2666 73.3334C 52.6222 72.9778 51.7778 73.0222 51.7334 73.0666z"/>
<path style="stroke:none; fill:#838383" d="M 52.8 72.8L 53.6 73.6L 52.8 72.8z"/>
<path style="stroke:none; fill:#757575" d="M 62.4 72.8L 63.2 73.6L 62.4 72.8z"/>
<path style="stroke:none; fill:#ededed" d="M 64.8 84L 59.2 83.2C 61.4576 86.1624 70.2906 86.3208 70.8272 81.528C 71.1624 78.5335 67.3829 76.9615 65.6 75.2L 69.6 75.2C 67.3334 72.223 60.0964 72.0924 59.5728 76.8716C 59.2235 80.06 63.3742 81.6296 64.8 84z"/>
<path style="stroke:none; fill:#838383" d="M 67.7334 73.0666C 67.3778 73.4222 68.2222 73.3778 68.2666 73.3334C 68.6222 72.9778 67.7778 73.0222 67.7334 73.0666z"/>
<path style="stroke:none; fill:#333333" d="M 69.3334 73.0666C 68.9778 73.4222 69.8222 73.3778 69.8666 73.3334C 70.2222 72.9778 69.3778 73.0222 69.3334 73.0666z"/>
<path style="stroke:none; fill:#929292" d="M 70.4 72.8L 70.4 73.6L 76.8 73.6C 74.7098 72.7218 72.6684 72.8058 70.4 72.8z"/>
<path style="stroke:none; fill:#5b5b5b" d="M 76.8 72.8L 77.6 73.6L 76.8 72.8z"/>
<path style="stroke:none; fill:#929292" d="M 83.2 72.8L 83.2 73.6L 86.4 74.4C 85.3488 73.1057 84.8984 73.0454 83.2 72.8z"/>
<path style="stroke:none; fill:#3d3d3d" d="M 106.4 72.8L 107.2 73.6L 106.4 72.8z"/>
<path style="stroke:none; fill:#838383" d="M 107.2 72.8L 108 73.6L 107.2 72.8z"/>
<path style="stroke:none; fill:#ededed" d="M 109.6 81.6L 109.6 83.2C 107.482 83.344 106.026 83.0552 104 82.4C 105.185 87.9568 114.038 85.4512 116 81.6C 119.41 84.3312 125.458 87.5856 128.8 83.2C 125.654 83.3016 124.318 82.4656 122.4 80L 132 79.2C 129.339 71.5604 119.53 71.2411 116 78.4L 109.6 76L 109.6 75.2L 114.4 75.2C 109.394 68.6246 98.4888 78.6649 109.6 81.6z"/>
<path style="stroke:none; fill:#a1a1a1" d="M 112 72.8L 112.8 73.6L 112 72.8z"/>
<path style="stroke:none; fill:#696969" d="M 112.8 72.8L 113.6 73.6L 112.8 72.8z"/>
<path style="stroke:none; fill:#757575" d="M 120.8 72.8L 121.6 73.6L 120.8 72.8z"/>
<path style="stroke:none; fill:#a1a1a1" d="M 121.6 72.8L 122.4 73.6L 121.6 72.8z"/>
<path style="stroke:none; fill:#aeaeae" d="M 125.6 72.8L 126.4 73.6L 125.6 72.8z"/>
<path style="stroke:none; fill:#696969" d="M 126.4 72.8L 127.2 73.6L 126.4 72.8z"/>
<path style="stroke:none; fill:#a1a1a1" d="M 29.6 73.6L 30.4 74.4L 29.6 73.6z"/>
<path style="stroke:none; fill:#757575" d="M 39.2 73.6L 40 74.4L 39.2 73.6z"/>
<path style="stroke:none; fill:#bbbbbb" d="M 45.0666 74.1334C 45.0222 74.1778 44.9778 75.0222 45.3334 74.6666C 45.3778 74.6222 45.4222 73.7778 45.0666 74.1334z"/>
<path style="stroke:none; fill:#929292" d="M 55.2 73.6L 56 74.4L 55.2 73.6z"/>
<path style="stroke:none; fill:#aeaeae" d="M 60.8 73.6L 61.6 74.4L 60.8 73.6z"/>
<path style="stroke:none; fill:#cecece" d="M 70.1334 73.8666C 69.7778 74.2222 70.6222 74.1778 70.6666 74.1334C 71.0222 73.7778 70.1778 73.8222 70.1334 73.8666z"/>
<path style="stroke:none; fill:#ededed" d="M 71.2 73.6C 71.9617 78.0237 73.4446 83.948 78.4 84.8C 77.268 86.8464 75.7994 88.528 74.4 90.4C 81.4944 89.2952 83.9336 79.692 85.6 73.6C 81.8816 74.771 81.5832 78.1002 79.2 80.8C 78.6955 75.0694 76.7814 73.6198 71.2 73.6z"/>
<path style="stroke:none; fill:#838383" d="M 82.4 73.6L 83.2 74.4L 82.4 73.6z"/>
<path style="stroke:none; fill:#696969" d="M 104.8 73.6L 105.6 74.4L 104.8 73.6z"/>
<path style="stroke:none; fill:#a1a1a1" d="M 114.4 73.6L 115.2 74.4L 114.4 73.6z"/>
<path style="stroke:none; fill:#696969" d="M 118.4 73.6L 119.2 74.4L 118.4 73.6z"/>
<path style="stroke:none; fill:#bbbbbb" d="M 119.2 73.6L 120 74.4L 119.2 73.6z"/>
<path style="stroke:none; fill:#a1a1a1" d="M 128 73.6L 128.8 74.4L 128 73.6z"/>
<path style="stroke:none; fill:#3d3d3d" d="M 128.8 73.6L 129.6 74.4L 128.8 73.6z"/>
<path style="stroke:none; fill:#5b5b5b" d="M 28 74.4L 28.8 75.2L 28 74.4z"/>
<path style="stroke:none; fill:#d4d4d4" d="M 34.9334 74.6666C 34.5778 75.0222 35.4222 74.9778 35.4666 74.9334C 35.8222 74.5778 34.9778 74.6222 34.9334 74.6666z"/>
<path style="stroke:none; fill:#aeaeae" d="M 40 74.4L 40.8 75.2L 40 74.4z"/>
<path style="stroke:none; fill:#d4d4d4" d="M 46.4 74.4L 46.4 75.2L 50.4 75.2C 48.9848 74.5769 47.9713 74.4701 46.4 74.4z"/>
<path style="stroke:none; fill:#bbbbbb" d="M 56 74.4L 56.8 75.2L 56 74.4z"/>
<path style="stroke:none; fill:#4d4d4d" d="M 59.2 74.4L 60 75.2L 59.2 74.4z"/>
<path style="stroke:none; fill:#696969" d="M 68.8 76L 71.2 75.2C 69.787 74.8793 69.9541 74.9686 68.8 76z"/>
<path style="stroke:none; fill:#5b5b5b" d="M 77.6 74.4L 78.4 75.2L 77.6 74.4z"/>
<path style="stroke:none; fill:#333333" d="M 85.6 74.4C 85.4032 76.0966 85.4152 77.4994 85.6 79.2L 86.4 79.2C 86.3624 77.3978 86.2992 76.0417 85.6 74.4z"/>
<path style="stroke:none; fill:#696969" d="M 104 74.4L 104.8 75.2L 104 74.4z"/>
<path style="stroke:none; fill:#a1a1a1" d="M 117.6 74.4L 118.4 75.2L 117.6 74.4z"/>
<path style="stroke:none; fill:#5b5b5b" d="M 129.6 74.4L 130.4 75.2L 129.6 74.4z"/>
<path style="stroke:none; fill:#757575" d="M 27.2 75.2L 28 76L 27.2 75.2z"/>
<path style="stroke:none; fill:#838383" d="M 33.6 75.2L 34.4 76L 33.6 75.2z"/>
<path style="stroke:none; fill:#111111" d="M 34.4 75.2L 33.6 76L 33.6 76.8L 33.6 77.6C 35.4912 77.2141 35.614 77.0912 36 75.2L 34.4 75.2z"/>
<path style="stroke:none; fill:#a1a1a1" d="M 36 75.2L 36.8 76L 36 75.2z"/>
<path style="stroke:none; fill:#929292" d="M 40.8 75.2L 41.6 76L 40.8 75.2z"/>
<path style="stroke:none; fill:#a1a1a1" d="M 50.4 75.2L 51.2 76L 50.4 75.2z"/>
<path style="stroke:none; fill:#bbbbbb" d="M 56.8 75.2L 57.6 76L 56.8 75.2z"/>
<path style="stroke:none; fill:#111111" d="M 65.6 75.2L 65.6 76L 72 79.2L 71.2 75.2L 65.6 75.2z"/>
<path style="stroke:none; fill:#5b5b5b" d="M 81.6 75.2L 82.4 76L 81.6 75.2z"/>
<path style="stroke:none; fill:#a1a1a1" d="M 84.8 75.2L 85.6 76L 84.8 75.2z"/>
<path style="stroke:none; fill:#5b5b5b" d="M 103.2 75.2L 104 76L 103.2 75.2z"/>
<path style="stroke:none; fill:#a1a1a1" d="M 109.6 75.2L 110.4 76L 109.6 75.2z"/>
<path style="stroke:none; fill:#696969" d="M 113.334 75.4666C 112.978 75.8222 113.822 75.7778 113.866 75.7334C 114.222 75.3778 113.378 75.4222 113.334 75.4666z"/>
<path style="stroke:none; fill:#aeaeae" d="M 116.8 75.2L 117.6 76L 116.8 75.2z"/>
<path style="stroke:none; fill:#4d4d4d" d="M 123.2 75.2L 124 76L 123.2 75.2z"/>
<path style="stroke:none; fill:#111111" d="M 124 75.2C 123.211 76.3828 123.2 76.1626 123.2 77.6L 125.6 77.6C 125.053 76.336 124.956 76.1782 124 75.2z"/>
<path style="stroke:none; fill:#4d4d4d" d="M 124.8 75.2L 125.6 76L 124.8 75.2z"/>
<path style="stroke:none; fill:#5b5b5b" d="M 130.4 75.2L 131.2 76L 130.4 75.2z"/>
<path style="stroke:none; fill:#333333" d="M 36 76C 35.0218 76.9562 34.864 77.0531 33.6 77.6L 33.6 78.4C 35.4784 78.1646 36.7608 78.0053 36 76z"/>
<path style="stroke:none; fill:#5b5b5b" d="M 41.6 76L 42.4 76.8L 41.6 76M 58.1334 76.2666C 57.7778 76.6222 58.6222 76.5778 58.6666 76.5334C 59.0222 76.1778 58.1778 76.2222 58.1334 76.2666z"/>
<path style="stroke:none; fill:#838383" d="M 65.6 76L 66.4 76.8L 65.6 76z"/>
<path style="stroke:none; fill:#757575" d="M 71.2 76L 72 76.8L 71.2 76z"/>
<path style="stroke:none; fill:#696969" d="M 110.4 76L 111.2 76.8L 110.4 76z"/>
<path style="stroke:none; fill:#838383" d="M 116 76L 116.8 76.8L 116 76z"/>
<path style="stroke:none; fill:#a1a1a1" d="M 122.4 76L 123.2 76.8L 122.4 76z"/>
<path style="stroke:none; fill:#929292" d="M 125.6 76L 125.6 78.4L 126.4 78.4C 126.199 77.2387 126.148 76.9987 125.6 76z"/>
<path style="stroke:none; fill:#838383" d="M 26.4 76.8L 27.2 77.6L 26.4 76.8z"/>
<path style="stroke:none; fill:#aeaeae" d="M 33.0666 77.3334C 33.0222 77.3778 32.9778 78.2222 33.3334 77.8666C 33.3778 77.8222 33.4222 76.9778 33.0666 77.3334z"/>
<path style="stroke:none; fill:#757575" d="M 45.6 76.8L 45.6 77.6L 48.8 77.6C 47.5952 77.0536 46.9482 76.9393 45.6 76.8z"/>
<path style="stroke:none; fill:#3d3d3d" d="M 48.8 76.8L 49.6 77.6L 48.8 76.8z"/>
<path style="stroke:none; fill:#838383" d="M 51.2 76.8L 50.4 78.4L 52 78.4C 52 76.9174 52.2398 77.3198 51.2 76.8z"/>
<path style="stroke:none; fill:#cecece" d="M 57.6 76.8L 57.6 84.8L 58.4 84.8C 58.3997 82.0688 58.6619 79.3306 57.6 76.8z"/>
<path style="stroke:none; fill:#929292" d="M 58.6666 77.3334C 58.6222 77.3778 58.5778 78.2222 58.9334 77.8666C 58.9778 77.8222 59.0222 76.9778 58.6666 77.3334z"/>
<path style="stroke:none; fill:#bbbbbb" d="M 67.2 76.8L 68 77.6L 67.2 76.8z"/>
<path style="stroke:none; fill:#838383" d="M 68 76.8L 68.8 77.6L 68 76.8z"/>
<path style="stroke:none; fill:#757575" d="M 78.4 76.8L 79.2 77.6L 78.4 76.8z"/>
<path style="stroke:none; fill:#bbbbbb" d="M 84 76.8L 84.8 77.6L 84 76.8z"/>
<path style="stroke:none; fill:#aeaeae" d="M 112 76.8L 112.8 77.6L 112 76.8z"/>
<path style="stroke:none; fill:#696969" d="M 112.8 76.8L 113.6 77.6L 112.8 76.8z"/>
<path style="stroke:none; fill:#333333" d="M 122.4 76.8C 123.451 78.0943 123.902 78.1546 125.6 78.4L 125.6 77.6L 122.4 76.8z"/>
<path style="stroke:none; fill:#696969" d="M 131.2 76.8L 132 77.6L 131.2 76.8z"/>
<path style="stroke:none; fill:#3d3d3d" d="M 42.9334 77.8666C 42.5778 78.2222 43.4222 78.1778 43.4666 78.1334C 43.8222 77.7778 42.9778 77.8222 42.9334 77.8666z"/>
<path style="stroke:none; fill:#aeaeae" d="M 44 77.6L 44.8 78.4L 44 77.6z"/>
<path style="stroke:none; fill:#838383" d="M 69.6 77.6L 70.4 78.4L 69.6 77.6z"/>
<path style="stroke:none; fill:#a1a1a1" d="M 72 77.6L 72.8 78.4L 72 77.6z"/>
<path style="stroke:none; fill:#757575" d="M 80.8 77.6L 81.6 78.4L 80.8 77.6M 84 77.6L 84.8 78.4L 84 77.6z"/>
<path style="stroke:none; fill:#5b5b5b" d="M 114.934 77.8666C 114.578 78.2222 115.422 78.1778 115.466 78.1334C 115.822 77.7778 114.978 77.8222 114.934 77.8666z"/>
<path style="stroke:none; fill:#202020" d="M 58.4 78.4L 58.4 83.2C 60.6267 82.844 62.56 82.9624 64.8 83.2L 64.8 82.4C 62.4777 81.2424 60.4434 79.9991 58.4 78.4z"/>
<path style="stroke:none; fill:#a1a1a1" d="M 70.4 78.4L 71.2 79.2L 70.4 78.4z"/>
<path style="stroke:none; fill:#5b5b5b" d="M 72 78.4L 72.8 79.2L 72 78.4z"/>
<path style="stroke:none; fill:#4d4d4d" d="M 79.2 78.4L 80 79.2L 79.2 78.4z"/>
<path style="stroke:none; fill:#838383" d="M 103.2 78.4L 104 79.2L 103.2 78.4z"/>
<path style="stroke:none; fill:#d4d4d4" d="M 122.4 78.4L 122.4 79.2L 124.8 79.2C 123.802 78.6522 123.562 78.601 122.4 78.4M 36 79.2L 36 80L 39.2 80C 37.9952 79.4536 37.3482 79.3393 36 79.2z"/>
<path style="stroke:none; fill:#a1a1a1" d="M 39.7334 79.4666C 39.3778 79.8222 40.2222 79.7778 40.2666 79.7334C 40.6222 79.3778 39.7778 79.4222 39.7334 79.4666z"/>
<path style="stroke:none; fill:#838383" d="M 40.8 79.2C 41.2361 80.508 41.0918 80.364 42.4 80.8L 42.4 79.2L 40.8 79.2z"/>
<path style="stroke:none; fill:#bbbbbb" d="M 50.1334 79.4666C 49.7778 79.8222 50.6222 79.7778 50.6666 79.7334C 51.0222 79.3778 50.1778 79.4222 50.1334 79.4666z"/>
<path style="stroke:none; fill:#838383" d="M 59.2 79.2L 60 80L 59.2 79.2z"/>
<path style="stroke:none; fill:#757575" d="M 71.2 79.2L 72 80L 71.2 79.2z"/>
<path style="stroke:none; fill:#aeaeae" d="M 79.2 79.2L 80 80L 79.2 79.2z"/>
<path style="stroke:none; fill:#5b5b5b" d="M 80 79.2L 80.8 80L 80 79.2z"/>
<path style="stroke:none; fill:#838383" d="M 83.2 79.2L 84 80L 83.2 79.2z"/>
<path style="stroke:none; fill:#bbbbbb" d="M 104 79.2L 104.8 80L 104 79.2M 127.2 79.2L 127.2 80L 129.6 80C 128.602 79.4522 128.362 79.401 127.2 79.2z"/>
<path style="stroke:none; fill:#757575" d="M 129.6 79.2L 129.6 80L 132 80C 131.002 79.4522 130.762 79.401 129.6 79.2z"/>
<path style="stroke:none; fill:#5b5b5b" d="M 34.1334 80.2664C 33.7778 80.6224 34.6222 80.5776 34.6666 80.5336C 35.0222 80.1776 34.1778 80.2224 34.1334 80.2664z"/>
<path style="stroke:none; fill:#3d3d3d" d="M 35.2 80L 35.2 80.8L 37.6 80.8C 36.6014 80.252 36.3613 80.2008 35.2 80z"/>
<path style="stroke:none; fill:#d4d4d4" d="M 48 80L 48 82.4L 48.8 82.4C 48.599 81.2384 48.5478 80.9984 48 80z"/>
<path style="stroke:none; fill:#4d4d4d" d="M 48.8 80L 49.6 80.8L 48.8 80z"/>
<path style="stroke:none; fill:#111111" d="M 49.6 80L 48.8 80.8L 48.8 81.6L 48.8 82.4C 50.6912 82.0144 50.814 81.8912 51.2 80L 49.6 80z"/>
<path style="stroke:none; fill:#4d4d4d" d="M 51.2 80L 51.2 82.4L 52 82.4C 51.799 81.2384 51.7478 80.9984 51.2 80z"/>
<path style="stroke:none; fill:#757575" d="M 60 80L 60.8 80.8L 60 80z"/>
<path style="stroke:none; fill:#d4d4d4" d="M 71.4666 80.5336C 71.4222 80.5776 71.3778 81.4224 71.7334 81.0664C 71.7778 81.0224 71.8222 80.1776 71.4666 80.5336z"/>
<path style="stroke:none; fill:#5b5b5b" d="M 72.8 80L 73.6 80.8L 72.8 80z"/>
<path style="stroke:none; fill:#d4d4d4" d="M 79.7334 80.2664C 79.3778 80.6224 80.2224 80.5776 80.2664 80.5336C 80.6224 80.1776 79.7778 80.2224 79.7334 80.2664z"/>
<path style="stroke:none; fill:#3d3d3d" d="M 93.6 80L 94.4 80.8L 93.6 80z"/>
<path style="stroke:none; fill:#bbbbbb" d="M 100 80L 100.8 80.8L 100 80z"/>
<path style="stroke:none; fill:#929292" d="M 102.4 80L 103.2 80.8L 102.4 80z"/>
<path style="stroke:none; fill:#a1a1a1" d="M 104.8 80L 105.6 80.8L 104.8 80z"/>
<path style="stroke:none; fill:#aeaeae" d="M 122.666 80.5336C 122.622 80.5776 122.578 81.4224 122.934 81.0664C 122.978 81.0224 123.022 80.1776 122.666 80.5336z"/>
<path style="stroke:none; fill:#4d4d4d" d="M 123.734 80.2664C 123.378 80.6224 124.222 80.5776 124.266 80.5336C 124.622 80.1776 123.778 80.2224 123.734 80.2664z"/>
<path style="stroke:none; fill:#757575" d="M 26.4 80.8L 27.2 81.6L 26.4 80.8z"/>
<path style="stroke:none; fill:#929292" d="M 61.6 80.8L 62.4 81.6L 61.6 80.8z"/>
<path style="stroke:none; fill:#aeaeae" d="M 82.4 80.8L 83.2 81.6L 82.4 80.8z"/>
<path style="stroke:none; fill:#838383" d="M 86.4 80.8L 87.2 81.6L 86.4 80.8z"/>
<path style="stroke:none; fill:#a1a1a1" d="M 93.6 80.8L 94.4 81.6L 93.6 80.8z"/>
<path style="stroke:none; fill:#5b5b5b" d="M 99.2 80.8L 100 81.6L 99.2 80.8z"/>
<path style="stroke:none; fill:#3d3d3d" d="M 105.6 80.8L 106.4 81.6L 105.6 80.8z"/>
<path style="stroke:none; fill:#cecece" d="M 106.934 81.0664C 106.578 81.4224 107.422 81.3776 107.466 81.3336C 107.822 80.9776 106.978 81.0224 106.934 81.0664z"/>
<path style="stroke:none; fill:#929292" d="M 33.6 81.6L 34.4 82.4L 33.6 81.6z"/>
<path style="stroke:none; fill:#757575" d="M 64 81.6L 64.8 82.4L 64 81.6z"/>
<path style="stroke:none; fill:#929292" d="M 71.2 81.6L 72 82.4L 71.2 81.6M 73.6 81.6L 74.4 82.4L 73.6 81.6z"/>
<path style="stroke:none; fill:#5b5b5b" d="M 82.4 81.6L 83.2 82.4L 82.4 81.6z"/>
<path style="stroke:none; fill:#aeaeae" d="M 94.4 81.6L 95.2 82.4L 94.4 81.6z"/>
<path style="stroke:none; fill:#838383" d="M 98.4 81.6L 99.2 82.4L 98.4 81.6z"/>
<path style="stroke:none; fill:#aeaeae" d="M 101.6 81.6L 102.4 82.4L 101.6 81.6z"/>
<path style="stroke:none; fill:#202020" d="M 105.6 82.4L 105.6 83.2C 107.298 82.9544 107.749 82.8944 108.8 81.6L 105.6 82.4z"/>
<path style="stroke:none; fill:#a1a1a1" d="M 108.8 81.6L 109.6 82.4L 108.8 81.6z"/>
<path style="stroke:none; fill:#929292" d="M 116 81.6L 116.8 82.4L 116 81.6z"/>
<path style="stroke:none; fill:#4d4d4d" d="M 123.2 81.6L 124 82.4L 123.2 81.6z"/>
<path style="stroke:none; fill:#696969" d="M 27.2 82.4L 28 83.2L 27.2 82.4z"/>
<path style="stroke:none; fill:#838383" d="M 34.4 82.4L 35.2 83.2L 34.4 82.4z"/>
<path style="stroke:none; fill:#3d3d3d" d="M 38.9334 82.6664C 38.5778 83.0224 39.4222 82.9776 39.4666 82.9336C 39.8222 82.5776 38.9778 82.6224 38.9334 82.6664z"/>
<path style="stroke:none; fill:#757575" d="M 41.6 82.4L 42.4 83.2L 41.6 82.4z"/>
<path style="stroke:none; fill:#aeaeae" d="M 50.1334 82.6664C 49.7778 83.0224 50.6222 82.9776 50.6666 82.9336C 51.0222 82.5776 50.1778 82.6224 50.1334 82.6664z"/>
<path style="stroke:none; fill:#bbbbbb" d="M 59.7334 82.6664C 59.3778 83.0224 60.2222 82.9776 60.2666 82.9336C 60.6222 82.5776 59.7778 82.6224 59.7334 82.6664z"/>
<path style="stroke:none; fill:#333333" d="M 61.3334 82.6664C 60.9778 83.0224 61.8222 82.9776 61.8666 82.9336C 62.2222 82.5776 61.3778 82.6224 61.3334 82.6664z"/>
<path style="stroke:none; fill:#696969" d="M 87.2 82.4L 88 83.2L 87.2 82.4z"/>
<path style="stroke:none; fill:#3d3d3d" d="M 101.6 82.4L 102.4 83.2L 101.6 82.4M 103.2 82.4L 104 83.2L 103.2 82.4z"/>
<path style="stroke:none; fill:#a1a1a1" d="M 104.8 82.4L 105.6 83.2L 104.8 82.4z"/>
<path style="stroke:none; fill:#5b5b5b" d="M 108.8 82.4L 109.6 83.2L 108.8 82.4z"/>
<path style="stroke:none; fill:#bbbbbb" d="M 115.2 82.4L 116 83.2L 115.2 82.4z"/>
<path style="stroke:none; fill:#aeaeae" d="M 116.8 82.4L 117.6 83.2L 116.8 82.4z"/>
<path style="stroke:none; fill:#202020" d="M 124 82.4L 124 83.2L 128 83.2C 126.585 82.5768 125.571 82.4704 124 82.4z"/>
<path style="stroke:none; fill:#696969" d="M 128 82.4L 128.8 83.2L 128 82.4z"/>
<path style="stroke:none; fill:#5b5b5b" d="M 28 83.2L 28.8 84L 28 83.2z"/>
<path style="stroke:none; fill:#d4d4d4" d="M 35.2 83.2L 35.2 84L 38.4 84C 37.1952 83.4536 36.5482 83.3392 35.2 83.2z"/>
<path style="stroke:none; fill:#cecece" d="M 39.4666 83.7336C 39.4222 83.7776 39.3778 84.6224 39.7334 84.2664C 39.7778 84.2224 39.8222 83.3776 39.4666 83.7336z"/>
<path style="stroke:none; fill:#aeaeae" d="M 58.6666 83.7336C 58.6222 83.7776 58.5778 84.6224 58.9334 84.2664C 58.9778 84.2224 59.0222 83.3776 58.6666 83.7336z"/>
<path style="stroke:none; fill:#d4d4d4" d="M 61.6 83.2L 61.6 84L 64.8 84C 63.5951 83.4536 62.9482 83.3392 61.6 83.2z"/>
<path style="stroke:none; fill:#5b5b5b" d="M 70.4 83.2L 71.2 84L 70.4 83.2z"/>
<path style="stroke:none; fill:#aeaeae" d="M 74.4 83.2L 75.2 84L 74.4 83.2z"/>
<path style="stroke:none; fill:#696969" d="M 81.6 83.2L 82.4 84L 81.6 83.2M 88 83.2L 88.8 84L 88 83.2z"/>
<path style="stroke:none; fill:#4d4d4d" d="M 100.8 83.2L 101.6 84L 100.8 83.2z"/>
<path style="stroke:none; fill:#aeaeae" d="M 103.466 83.7336C 103.422 83.7776 103.378 84.6224 103.734 84.2664C 103.778 84.2224 103.822 83.3776 103.466 83.7336z"/>
<path style="stroke:none; fill:#cecece" d="M 106.4 83.2L 106.4 84L 108.8 84C 107.802 83.452 107.562 83.4008 106.4 83.2z"/>
<path style="stroke:none; fill:#aeaeae" d="M 117.6 83.2L 118.4 84L 117.6 83.2z"/>
<path style="stroke:none; fill:#cecece" d="M 124.8 83.2L 124.8 84L 127.2 84C 126.202 83.452 125.962 83.4008 124.8 83.2z"/>
<path style="stroke:none; fill:#929292" d="M 129.066 83.7336C 129.022 83.7776 128.978 84.6224 129.334 84.2664C 129.378 84.2224 129.422 83.3776 129.066 83.7336z"/>
<path style="stroke:none; fill:#a1a1a1" d="M 29.6 84L 30.4 84.8L 29.6 84z"/>
<path style="stroke:none; fill:#bbbbbb" d="M 43.2 84L 44 84.8L 43.2 84M 50.4 84L 51.2 84.8L 50.4 84z"/>
<path style="stroke:none; fill:#838383" d="M 51.2 84L 52 84.8L 51.2 84z"/>
<path style="stroke:none; fill:#a1a1a1" d="M 68.8 84L 69.6 84.8L 68.8 84z"/>
<path style="stroke:none; fill:#4d4d4d" d="M 74.4 84L 75.2 84.8L 74.4 84z"/>
<path style="stroke:none; fill:#3d3d3d" d="M 88.8 84L 89.6 84.8L 88.8 84z"/>
<path style="stroke:none; fill:#aeaeae" d="M 99.2 84L 100 84.8L 99.2 84z"/>
<path style="stroke:none; fill:#333333" d="M 100 84L 100.8 84.8L 100 84z"/>
<path style="stroke:none; fill:#929292" d="M 113.6 84L 114.4 84.8L 113.6 84z"/>
<path style="stroke:none; fill:#696969" d="M 118.4 84L 119.2 84.8L 118.4 84z"/>
<path style="stroke:none; fill:#aeaeae" d="M 119.2 84L 120 84.8L 119.2 84z"/>
<path style="stroke:none; fill:#5b5b5b" d="M 31.2 84.8L 32 85.6L 31.2 84.8z"/>
<path style="stroke:none; fill:#bbbbbb" d="M 32.5334 85.0664C 32.1778 85.4224 33.0222 85.3776 33.0666 85.3336C 33.4222 84.9776 32.5778 85.0224 32.5334 85.0664z"/>
<path style="stroke:none; fill:#aeaeae" d="M 36.8 84.8L 37.6 85.6L 36.8 84.8z"/>
<path style="stroke:none; fill:#838383" d="M 37.6 84.8L 38.4 85.6L 37.6 84.8z"/>
<path style="stroke:none; fill:#4d4d4d" d="M 44 84.8L 44.8 85.6L 44 84.8z"/>
<path style="stroke:none; fill:#a1a1a1" d="M 44.8 84.8L 45.6 85.6L 44.8 84.8z"/>
<path style="stroke:none; fill:#838383" d="M 48.8 84.8L 49.6 85.6L 48.8 84.8z"/>
<path style="stroke:none; fill:#929292" d="M 52 84.8L 52 85.6L 58.4 85.6C 56.3098 84.7216 54.2684 84.8056 52 84.8z"/>
<path style="stroke:none; fill:#5b5b5b" d="M 60 84.8L 60.8 85.6L 60 84.8z"/>
<path style="stroke:none; fill:#a1a1a1" d="M 60.8 84.8L 61.6 85.6L 60.8 84.8z"/>
<path style="stroke:none; fill:#bbbbbb" d="M 64.8 84.8L 64.8 85.6L 67.2 85.6C 66.2014 85.052 65.9613 85.0008 64.8 84.8z"/>
<path style="stroke:none; fill:#5b5b5b" d="M 67.2 84.8L 68 85.6L 67.2 84.8z"/>
<path style="stroke:none; fill:#929292" d="M 75.2 84.8L 75.2 85.6L 78.4 85.6C 77.1952 85.0536 76.5482 84.9392 75.2 84.8z"/>
<path style="stroke:none; fill:#a1a1a1" d="M 80.8 84.8L 81.6 85.6L 80.8 84.8z"/>
<path style="stroke:none; fill:#5b5b5b" d="M 91.2 84.8L 92 85.6L 91.2 84.8z"/>
<path style="stroke:none; fill:#a1a1a1" d="M 92 84.8L 92.8 85.6L 92 84.8z"/>
<path style="stroke:none; fill:#838383" d="M 97.6 84.8L 98.4 85.6L 97.6 84.8z"/>
<path style="stroke:none; fill:#333333" d="M 103.734 85.0664C 103.378 85.4224 104.222 85.3776 104.266 85.3336C 104.622 84.9776 103.778 85.0224 103.734 85.0664z"/>
<path style="stroke:none; fill:#696969" d="M 104.8 84.8L 105.6 85.6L 104.8 84.8z"/>
<path style="stroke:none; fill:#cecece" d="M 106.134 85.0664C 105.778 85.4224 106.622 85.3776 106.666 85.3336C 107.022 84.9776 106.178 85.0224 106.134 85.0664z"/>
<path style="stroke:none; fill:#929292" d="M 111.2 84.8L 112 85.6L 111.2 84.8z"/>
<path style="stroke:none; fill:#4d4d4d" d="M 112 84.8L 112.8 85.6L 112 84.8z"/>
<path style="stroke:none; fill:#757575" d="M 120.8 84.8L 121.6 85.6L 120.8 84.8z"/>
<path style="stroke:none; fill:#cecece" d="M 122.134 85.0664C 121.778 85.4224 122.622 85.3776 122.666 85.3336C 123.022 84.9776 122.178 85.0224 122.134 85.0664z"/>
<path style="stroke:none; fill:#a1a1a1" d="M 126.4 84.8L 127.2 85.6L 126.4 84.8z"/>
<path style="stroke:none; fill:#696969" d="M 127.2 84.8L 128 85.6L 127.2 84.8M 77.6 85.6L 78.4 86.4L 77.6 85.6z"/>
<path style="stroke:none; fill:#a1a1a1" d="M 80 86.4L 80.8 87.2L 80 86.4z"/>
<path style="stroke:none; fill:#bbbbbb" d="M 76.8 87.2L 77.6 88L 76.8 87.2z"/>
<path style="stroke:none; fill:#5b5b5b" d="M 75.2 88L 76 88.8L 75.2 88z"/>
<path style="stroke:none; fill:#696969" d="M 79.2 88L 80 88.8L 79.2 88z"/>
<path style="stroke:none; fill:#5b5b5b" d="M 73.8666 89.3336C 73.8222 89.3776 73.7778 90.2224 74.1334 89.8664C 74.1778 89.8224 74.2222 88.9776 73.8666 89.3336z"/>
<path style="stroke:none; fill:#aeaeae" d="M 74.4 88.8L 75.2 89.6L 74.4 88.8z"/>
<path style="stroke:none; fill:#757575" d="M 78.4 88.8L 79.2 89.6L 78.4 88.8z"/>
<path style="stroke:none; fill:#4d4d4d" d="M 77.6 89.6L 78.4 90.4L 77.6 89.6z"/>
<path style="stroke:none; fill:#bbbbbb" d="M 74.9334 90.6664C 74.5778 91.0224 75.4222 90.9776 75.4666 90.9336C 75.8222 90.5776 74.9778 90.6224 74.9334 90.6664z"/>
<path style="stroke:none; fill:#757575" d="M 76 90.4L 76.8 91.2L 76 90.4z"/>
</g>
</svg>