<?xml version="1.0" encoding="utf-8"?>
<!-- Generator: Adobe Illustrator 25.4.1, SVG Export Plug-In . SVG Version: 6.00 Build 0)  -->
<svg version="1.1" id="Слой_1" xmlns="http://www.w3.org/2000/svg" xmlns:xlink="http://www.w3.org/1999/xlink" x="0px" y="0px"
	 viewBox="0 0 250 180" style="enable-background:new 0 0 250 180;" xml:space="preserve">
<style type="text/css">
	.st0{fill-rule:evenodd;clip-rule:evenodd;fill:#111111;}
	.st1{fill-rule:evenodd;clip-rule:evenodd;fill:#3D3D3D;}
	.st2{fill-rule:evenodd;clip-rule:evenodd;fill:#EDEDED;}
	.st3{fill-rule:evenodd;clip-rule:evenodd;fill:#CECECE;}
	.st4{fill-rule:evenodd;clip-rule:evenodd;fill:#838383;}
	.st5{fill-rule:evenodd;clip-rule:evenodd;fill:#D4D4D4;}
	.st6{fill-rule:evenodd;clip-rule:evenodd;fill:#202020;}
	.st7{fill-rule:evenodd;clip-rule:evenodd;fill:#4D4D4D;}
	.st8{fill-rule:evenodd;clip-rule:evenodd;fill:#929292;}
	.st9{fill-rule:evenodd;clip-rule:evenodd;fill:#BBBBBB;}
	.st10{fill-rule:evenodd;clip-rule:evenodd;fill:#333333;}
	.st11{fill-rule:evenodd;clip-rule:evenodd;fill:#696969;}
	.st12{fill-rule:evenodd;clip-rule:evenodd;fill:#757575;}
	.st13{fill-rule:evenodd;clip-rule:evenodd;fill:#5B5B5B;}
	.st14{fill-rule:evenodd;clip-rule:evenodd;fill:#A1A1A1;}
	.st15{fill-rule:evenodd;clip-rule:evenodd;fill:#AEAEAE;}
</style>
<g>
	<path class="st0" d="M0.63-0.45v180.47l250,0.59V0.14L0.63-0.45z"/>
	<path class="st1" d="M135.73,76.41v6.38h1.26C136.96,80.48,136.98,78.54,135.73,76.41z"/>
	<path class="st2" d="M136.99,76.41c0,4.83-1.82,11.99,1.48,16.35c4.04,5.35,17.74,6.29,22.27,0.77c3.57-4.33,1.48-12.24,1.48-17.12
		h-2.53c0,4.04,2.79,16.74-6.27,16.74c-8.59,0-6.36-12.92-6.36-16.74H136.99z"/>
	<path class="st3" d="M147.1,76.41v12.76h1.26C148.36,85.03,149.34,80.25,147.1,76.41z"/>
	<path class="st4" d="M158.46,76.41v14.58h1.26C159.72,86.35,160.97,80.71,158.46,76.41z"/>
	<path class="st5" d="M162.25,76.41v14.58h1.26C164.68,86.68,164.61,80.48,162.25,76.41z"/>
	<path class="st6" d="M163.51,76.41v9.11h1.26C164.77,82.41,165.18,79.29,163.51,76.41z"/>
	<path class="st7" d="M49.87,82.79l1.26,0.91L49.87,82.79z"/>
	<path class="st8" d="M51.14,82.79l1.26,0.91L51.14,82.79z"/>
	<path class="st2" d="M62.5,94.64c-4.81,0.3-6.66-0.56-8.84-3.65c4.67-0.42,9.17-0.89,13.89-0.91c-1.74,9.65,15.51,6.35,23.99,6.38
		c0-6.61-7.73-20.54-18.94-10.94c5.29-0.63,7.5,0.3,10.1,3.65c-5.33-0.91-9.79-0.72-15.15,0c-4.37-6.56-24.67-9.29-24.67,0.91
		C42.88,96.57,57.5,99.38,62.5,94.64z"/>
	<path class="st9" d="M57.45,82.79l1.26,0.91L57.45,82.79z"/>
	<path class="st4" d="M58.71,82.79l1.26,0.91L58.71,82.79z"/>
	<path class="st10" d="M72.17,83.1c-0.57,0.41,0.77,0.35,0.84,0.31C73.58,82.99,72.25,83.04,72.17,83.1z"/>
	<path class="st11" d="M73.86,82.79l1.26,0.91L73.86,82.79z"/>
	<path class="st3" d="M75.13,82.79v0.91h3.79C77.34,83.07,76.96,83.02,75.13,82.79z"/>
	<path class="st9" d="M82.28,83.1c-0.57,0.41,0.77,0.35,0.84,0.31C83.68,82.99,82.35,83.04,82.28,83.1z"/>
	<path class="st4" d="M83.96,82.79l1.26,0.91L83.96,82.79z"/>
	<path class="st12" d="M99.12,82.79l1.26,0.91L99.12,82.79z"/>
	<path class="st2" d="M102.9,95.55l-8.84-0.91c3.57,3.37,17.5,3.55,18.36-1.9c0.54-3.41-5.43-5.21-8.25-7.21h6.31
		c-3.58-3.4-14.99-3.54-15.83,1.9C94.1,91.06,100.65,92.85,102.9,95.55z"/>
	<path class="st4" d="M107.53,83.1c-0.57,0.41,0.77,0.35,0.84,0.31C108.93,82.99,107.61,83.04,107.53,83.1z"/>
	<path class="st10" d="M110.05,83.1c-0.57,0.41,0.77,0.35,0.84,0.31C111.46,82.99,110.13,83.04,110.05,83.1z"/>
	<path class="st8" d="M111.74,82.79v0.91h10.1C118.54,82.7,115.33,82.8,111.74,82.79z"/>
	<path class="st13" d="M121.84,82.79l1.26,0.91L121.84,82.79z"/>
	<path class="st8" d="M131.94,82.79v0.91l5.05,0.91C135.34,83.14,134.63,83.07,131.94,82.79z"/>
	<path class="st1" d="M168.56,82.79l1.26,0.91L168.56,82.79z"/>
	<path class="st4" d="M169.82,82.79l1.26,0.91L169.82,82.79z"/>
	<path class="st2" d="M173.61,92.81v1.82c-3.35,0.16-5.63-0.16-8.84-0.91c1.86,6.33,15.85,3.47,18.94-0.91
		c5.38,3.11,14.93,6.82,20.2,1.82c-4.97,0.11-7.07-0.83-10.1-3.65l15.15-0.91c-4.2-8.7-19.68-9.07-25.25-0.91l-10.1-2.73v-0.91h7.58
		C173.28,78.04,156.08,89.48,173.61,92.81z"/>
	<path class="st14" d="M177.4,82.79l1.26,0.91L177.4,82.79z"/>
	<path class="st11" d="M178.66,82.79l1.26,0.91L178.66,82.79z"/>
	<path class="st12" d="M191.29,82.79l1.26,0.91L191.29,82.79z"/>
	<path class="st14" d="M192.55,82.79l1.26,0.91L192.55,82.79z"/>
	<path class="st15" d="M198.86,82.79l1.26,0.91L198.86,82.79z"/>
	<path class="st11" d="M200.13,82.79l1.26,0.91L200.13,82.79z"/>
	<path class="st14" d="M47.35,83.7l1.26,0.91L47.35,83.7z"/>
	<path class="st12" d="M62.5,83.7l1.26,0.91L62.5,83.7z"/>
	<path class="st9" d="M71.76,84.3c-0.06,0.05-0.14,1.01,0.43,0.6C72.25,84.86,72.32,83.9,71.76,84.3z"/>
	<path class="st8" d="M87.75,83.7l1.26,0.91L87.75,83.7z"/>
	<path class="st15" d="M96.59,83.7l1.26,0.91L96.59,83.7z"/>
	<path class="st3" d="M111.32,84.01c-0.57,0.41,0.77,0.35,0.84,0.31C112.72,83.9,111.4,83.95,111.32,84.01z"/>
	<path class="st2" d="M113.01,83.7c1.2,5.04,3.54,11.79,11.36,12.76c-1.78,2.34-4.1,4.25-6.31,6.38
		c11.19-1.25,15.04-12.2,17.68-19.14c-5.87,1.33-6.34,5.13-10.1,8.2C124.84,85.37,121.81,83.72,113.01,83.7z"/>
	<path class="st4" d="M130.68,83.7l1.26,0.91L130.68,83.7z"/>
	<path class="st11" d="M166.04,83.7l1.26,0.91L166.04,83.7z"/>
	<path class="st14" d="M181.19,83.7l1.26,0.91L181.19,83.7z"/>
	<path class="st11" d="M187.5,83.7l1.26,0.91L187.5,83.7z"/>
	<path class="st9" d="M188.76,83.7l1.26,0.91L188.76,83.7z"/>
	<path class="st14" d="M202.65,83.7l1.26,0.91L202.65,83.7z"/>
	<path class="st1" d="M203.91,83.7l1.26,0.91L203.91,83.7z"/>
	<path class="st13" d="M44.82,84.61l1.26,0.91L44.82,84.61z"/>
	<path class="st5" d="M55.76,84.92c-0.57,0.41,0.77,0.35,0.84,0.31C57.17,84.82,55.84,84.86,55.76,84.92z"/>
	<path class="st15" d="M63.76,84.61l1.26,0.91L63.76,84.61z"/>
	<path class="st5" d="M73.86,84.61v0.91h6.31C77.94,84.82,76.34,84.69,73.86,84.61z"/>
	<path class="st9" d="M89.02,84.61l1.26,0.91L89.02,84.61z"/>
	<path class="st7" d="M94.07,84.61l1.26,0.91L94.07,84.61z"/>
	<path class="st11" d="M109.22,86.43l3.79-0.91C110.78,85.16,111.03,85.26,109.22,86.43z"/>
	<path class="st13" d="M123.11,84.61l1.26,0.91L123.11,84.61z"/>
	<path class="st10" d="M135.73,84.61c-0.32,1.94-0.28,3.53,0,5.47h1.26C136.93,88.03,136.84,86.48,135.73,84.61z"/>
	<path class="st11" d="M164.77,84.61l1.26,0.91L164.77,84.61z"/>
	<path class="st14" d="M186.24,84.61l1.26,0.91L186.24,84.61z"/>
	<path class="st13" d="M205.18,84.61l1.26,0.91L205.18,84.61z"/>
	<path class="st12" d="M43.56,85.52l1.26,0.91L43.56,85.52z"/>
	<path class="st4" d="M53.66,85.52l1.26,0.91L53.66,85.52z"/>
	<path class="st0" d="M54.92,85.52l-1.26,0.91v0.91v0.91c2.98-0.44,3.17-0.58,3.79-2.73C57.45,85.52,54.92,85.52,54.92,85.52z"/>
	<path class="st14" d="M57.45,85.52l1.26,0.91L57.45,85.52z"/>
	<path class="st8" d="M65.03,85.52l1.26,0.91L65.03,85.52z"/>
	<path class="st14" d="M80.18,85.52l1.26,0.91L80.18,85.52z"/>
	<path class="st9" d="M90.28,85.52l1.26,0.91L90.28,85.52z"/>
	<path class="st0" d="M104.17,85.52v0.91l10.1,3.65l-1.26-4.56H104.17z"/>
	<path class="st13" d="M129.42,85.52l1.26,0.91L129.42,85.52z"/>
	<path class="st14" d="M134.47,85.52l1.26,0.91L134.47,85.52z"/>
	<path class="st13" d="M163.51,85.52l1.26,0.91L163.51,85.52z"/>
	<path class="st14" d="M173.61,85.52l1.26,0.91L173.61,85.52z"/>
	<path class="st11" d="M179.5,85.83c-0.57,0.41,0.77,0.35,0.84,0.31C180.9,85.73,179.58,85.77,179.5,85.83z"/>
	<path class="st15" d="M184.97,85.52l1.26,0.91L184.97,85.52z"/>
	<path class="st7" d="M195.08,85.52l1.26,0.91L195.08,85.52z"/>
	<path class="st0" d="M196.34,85.52c-1.25,1.34-1.26,1.09-1.26,2.73h3.79C198,86.82,197.85,86.64,196.34,85.52z"/>
	<path class="st7" d="M197.6,85.52l1.26,0.91L197.6,85.52z"/>
	<path class="st13" d="M206.44,85.52l1.26,0.91L206.44,85.52z"/>
	<path class="st10" d="M57.45,86.43c-1.55,1.09-1.8,1.2-3.79,1.82v0.91C56.63,88.91,58.65,88.72,57.45,86.43z"/>
	<path class="st13" d="M66.29,86.43l1.26,0.91L66.29,86.43 M92.38,86.74c-0.57,0.41,0.77,0.35,0.84,0.31
		C93.78,86.64,92.46,86.68,92.38,86.74z"/>
	<path class="st4" d="M104.17,86.43l1.26,0.91L104.17,86.43z"/>
	<path class="st12" d="M113.01,86.43l1.26,0.91L113.01,86.43z"/>
	<path class="st11" d="M174.87,86.43l1.26,0.91L174.87,86.43z"/>
	<path class="st4" d="M183.71,86.43l1.26,0.91L183.71,86.43z"/>
	<path class="st14" d="M193.81,86.43l1.26,0.91L193.81,86.43z"/>
	<path class="st8" d="M198.86,86.43v2.73h1.26C199.81,87.85,199.73,87.57,198.86,86.43z"/>
	<path class="st4" d="M42.3,87.35l1.26,0.91L42.3,87.35z"/>
	<path class="st15" d="M52.83,87.95c-0.06,0.05-0.14,1.01,0.43,0.6C53.31,88.51,53.38,87.55,52.83,87.95z"/>
	<path class="st12" d="M72.6,87.35v0.91h5.05C75.76,87.63,74.73,87.5,72.6,87.35z"/>
	<path class="st1" d="M77.65,87.35l1.26,0.91L77.65,87.35z"/>
	<path class="st4" d="M81.44,87.35l-1.26,1.82h2.53C82.7,87.48,83.08,87.94,81.44,87.35z"/>
	<path class="st3" d="M91.54,87.35v9.11h1.26C92.8,93.35,93.21,90.23,91.54,87.35z"/>
	<path class="st8" d="M93.23,87.95c-0.06,0.05-0.14,1.01,0.43,0.6C93.72,88.51,93.78,87.55,93.23,87.95z"/>
	<path class="st9" d="M106.69,87.35l1.26,0.91L106.69,87.35z"/>
	<path class="st4" d="M107.95,87.35l1.26,0.91L107.95,87.35z"/>
	<path class="st12" d="M124.37,87.35l1.26,0.91L124.37,87.35z"/>
	<path class="st9" d="M133.21,87.35l1.26,0.91L133.21,87.35z"/>
	<path class="st15" d="M177.4,87.35l1.26,0.91L177.4,87.35z"/>
	<path class="st11" d="M178.66,87.35l1.26,0.91L178.66,87.35z"/>
	<path class="st10" d="M193.81,87.35c1.66,1.47,2.37,1.54,5.05,1.82v-0.91L193.81,87.35z"/>
	<path class="st11" d="M207.7,87.35l1.26,0.91L207.7,87.35z"/>
	<path class="st1" d="M68.39,88.56c-0.57,0.41,0.77,0.35,0.84,0.31C69.79,88.46,68.47,88.51,68.39,88.56z"/>
	<path class="st15" d="M70.08,88.26l1.26,0.91L70.08,88.26z"/>
	<path class="st4" d="M110.48,88.26l1.26,0.91L110.48,88.26z"/>
	<path class="st14" d="M114.27,88.26l1.26,0.91L114.27,88.26z"/>
	<path class="st12" d="M128.16,88.26l1.26,0.91L128.16,88.26 M133.21,88.26l1.26,0.91L133.21,88.26z"/>
	<path class="st13" d="M182.02,88.56c-0.57,0.41,0.77,0.35,0.84,0.31C183.43,88.46,182.1,88.51,182.02,88.56z"/>
	<path class="st6" d="M92.8,89.17v5.47c3.52-0.41,6.57-0.27,10.1,0v-0.91C99.24,92.4,96.02,90.99,92.8,89.17z"/>
	<path class="st14" d="M111.74,89.17l1.26,0.91L111.74,89.17z"/>
	<path class="st13" d="M114.27,89.17l1.26,0.91L114.27,89.17z"/>
	<path class="st7" d="M125.63,89.17l1.26,0.91L125.63,89.17z"/>
	<path class="st4" d="M163.51,89.17l1.26,0.91L163.51,89.17z"/>
	<path class="st5" d="M193.81,89.17v0.91h3.79C196.02,89.45,195.64,89.4,193.81,89.17 M57.45,90.08v0.91h5.05
		C60.61,90.36,59.58,90.24,57.45,90.08z"/>
	<path class="st14" d="M63.34,90.39c-0.57,0.41,0.77,0.35,0.84,0.31C64.74,90.28,63.42,90.33,63.34,90.39z"/>
	<path class="st4" d="M65.03,90.08c0.69,1.49,0.46,1.32,2.53,1.82v-1.82H65.03z"/>
	<path class="st9" d="M79.75,90.39c-0.57,0.41,0.77,0.35,0.84,0.31C81.16,90.28,79.83,90.33,79.75,90.39z"/>
	<path class="st4" d="M94.07,90.08l1.26,0.91L94.07,90.08z"/>
	<path class="st12" d="M113.01,90.08l1.26,0.91L113.01,90.08z"/>
	<path class="st15" d="M125.63,90.08l1.26,0.91L125.63,90.08z"/>
	<path class="st13" d="M126.89,90.08l1.26,0.91L126.89,90.08z"/>
	<path class="st4" d="M131.94,90.08l1.26,0.91L131.94,90.08z"/>
	<path class="st9" d="M164.77,90.08l1.26,0.91L164.77,90.08 M201.39,90.08v0.91h3.79C203.6,90.36,203.22,90.31,201.39,90.08z"/>
	<path class="st12" d="M205.18,90.08v0.91h3.79C207.39,90.36,207.01,90.31,205.18,90.08z"/>
	<path class="st13" d="M54.5,91.3c-0.57,0.41,0.77,0.35,0.84,0.31C55.9,91.2,54.58,91.24,54.5,91.3z"/>
	<path class="st1" d="M56.19,90.99v0.91h3.79C58.4,91.28,58.02,91.22,56.19,90.99z"/>
	<path class="st5" d="M76.39,90.99v2.73h1.26C77.34,92.4,77.26,92.13,76.39,90.99z"/>
	<path class="st7" d="M77.65,90.99l1.26,0.91L77.65,90.99z"/>
	<path class="st0" d="M78.91,90.99l-1.26,0.91v0.91v0.91c2.98-0.44,3.17-0.58,3.79-2.73C81.44,90.99,78.91,90.99,78.91,90.99z"/>
	<path class="st7" d="M81.44,90.99v2.73h1.26C82.39,92.4,82.31,92.13,81.44,90.99z"/>
	<path class="st12" d="M95.33,90.99l1.26,0.91L95.33,90.99z"/>
	<path class="st5" d="M113.43,91.59c-0.06,0.05-0.14,1.01,0.43,0.6C113.92,92.15,113.98,91.2,113.43,91.59z"/>
	<path class="st13" d="M115.53,90.99l1.26,0.91L115.53,90.99z"/>
	<path class="st5" d="M126.47,91.3c-0.57,0.41,0.77,0.35,0.84,0.31C127.87,91.2,126.55,91.24,126.47,91.3z"/>
	<path class="st1" d="M148.36,90.99l1.26,0.91L148.36,90.99z"/>
	<path class="st9" d="M158.46,90.99l1.26,0.91L158.46,90.99z"/>
	<path class="st8" d="M162.25,90.99l1.26,0.91L162.25,90.99z"/>
	<path class="st14" d="M166.04,90.99l1.26,0.91L166.04,90.99z"/>
	<path class="st15" d="M194.24,91.59c-0.06,0.05-0.14,1.01,0.43,0.6C194.73,92.15,194.79,91.2,194.24,91.59z"/>
	<path class="st7" d="M195.91,91.3c-0.57,0.41,0.77,0.35,0.84,0.31C197.32,91.2,195.99,91.24,195.91,91.3z"/>
	<path class="st12" d="M42.3,91.9l1.26,0.91L42.3,91.9z"/>
	<path class="st8" d="M97.85,91.9l1.26,0.91L97.85,91.9z"/>
	<path class="st15" d="M130.68,91.9l1.26,0.91L130.68,91.9z"/>
	<path class="st4" d="M136.99,91.9l1.26,0.91L136.99,91.9z"/>
	<path class="st14" d="M148.36,91.9l1.26,0.91L148.36,91.9z"/>
	<path class="st13" d="M157.2,91.9l1.26,0.91L157.2,91.9z"/>
	<path class="st1" d="M167.3,91.9l1.26,0.91L167.3,91.9z"/>
	<path class="st3" d="M169.4,92.21c-0.57,0.41,0.77,0.35,0.84,0.31C170.8,92.11,169.48,92.15,169.4,92.21z"/>
	<path class="st8" d="M53.66,92.81l1.26,0.91L53.66,92.81z"/>
	<path class="st12" d="M101.64,92.81l1.26,0.91L101.64,92.81z"/>
	<path class="st8" d="M113.01,92.81l1.26,0.91L113.01,92.81 M116.79,92.81l1.26,0.91L116.79,92.81z"/>
	<path class="st13" d="M130.68,92.81l1.26,0.91L130.68,92.81z"/>
	<path class="st15" d="M149.62,92.81l1.26,0.91L149.62,92.81z"/>
	<path class="st4" d="M155.93,92.81l1.26,0.91L155.93,92.81z"/>
	<path class="st15" d="M160.98,92.81l1.26,0.91L160.98,92.81z"/>
	<path class="st6" d="M167.3,93.73v0.91c2.68-0.28,3.39-0.35,5.05-1.82L167.3,93.73z"/>
	<path class="st14" d="M172.35,92.81l1.26,0.91L172.35,92.81z"/>
	<path class="st8" d="M183.71,92.81l1.26,0.91L183.71,92.81z"/>
	<path class="st7" d="M195.08,92.81l1.26,0.91L195.08,92.81z"/>
	<path class="st11" d="M43.56,93.73l1.26,0.91L43.56,93.73z"/>
	<path class="st4" d="M54.92,93.73l1.26,0.91L54.92,93.73z"/>
	<path class="st1" d="M62.07,94.03c-0.57,0.41,0.77,0.35,0.84,0.31C63.48,93.93,62.15,93.98,62.07,94.03z"/>
	<path class="st12" d="M66.29,93.73l1.26,0.91L66.29,93.73z"/>
	<path class="st15" d="M79.75,94.03c-0.57,0.41,0.77,0.35,0.84,0.31C81.16,93.93,79.83,93.98,79.75,94.03z"/>
	<path class="st9" d="M94.9,94.03c-0.57,0.41,0.77,0.35,0.84,0.31C96.31,93.93,94.98,93.98,94.9,94.03z"/>
	<path class="st10" d="M97.43,94.03c-0.57,0.41,0.77,0.35,0.84,0.31C98.83,93.93,97.51,93.98,97.43,94.03z"/>
	<path class="st11" d="M138.26,93.73l1.26,0.91L138.26,93.73z"/>
	<path class="st1" d="M160.98,93.73l1.26,0.91L160.98,93.73 M163.51,93.73l1.26,0.91L163.51,93.73z"/>
	<path class="st14" d="M166.04,93.73l1.26,0.91L166.04,93.73z"/>
	<path class="st13" d="M172.35,93.73l1.26,0.91L172.35,93.73z"/>
	<path class="st9" d="M182.45,93.73l1.26,0.91L182.45,93.73z"/>
	<path class="st15" d="M184.97,93.73l1.26,0.91L184.97,93.73z"/>
	<path class="st6" d="M196.34,93.73v0.91h6.31C200.41,93.93,198.82,93.81,196.34,93.73z"/>
	<path class="st11" d="M202.65,93.73l1.26,0.91L202.65,93.73z"/>
	<path class="st13" d="M44.82,94.64l1.26,0.91L44.82,94.64z"/>
	<path class="st5" d="M56.19,94.64v0.91h5.05C59.34,94.92,58.32,94.8,56.19,94.64z"/>
	<path class="st3" d="M62.93,95.24c-0.06,0.05-0.14,1.01,0.43,0.6C63.42,95.8,63.48,94.84,62.93,95.24z"/>
	<path class="st15" d="M93.23,95.24c-0.06,0.05-0.14,1.01,0.43,0.6C93.72,95.8,93.78,94.84,93.23,95.24z"/>
	<path class="st5" d="M97.85,94.64v0.91h5.05C101.01,94.92,99.98,94.8,97.85,94.64z"/>
	<path class="st13" d="M111.74,94.64l1.26,0.91L111.74,94.64z"/>
	<path class="st15" d="M118.06,94.64l1.26,0.91L118.06,94.64z"/>
	<path class="st11" d="M129.42,94.64l1.26,0.91L129.42,94.64 M139.52,94.64l1.26,0.91L139.52,94.64z"/>
	<path class="st7" d="M159.72,94.64l1.26,0.91L159.72,94.64z"/>
	<path class="st15" d="M163.94,95.24c-0.06,0.05-0.14,1.01,0.43,0.6C164.43,95.8,164.49,94.84,163.94,95.24z"/>
	<path class="st3" d="M168.56,94.64v0.91h3.79C170.77,94.92,170.39,94.86,168.56,94.64z"/>
	<path class="st15" d="M186.24,94.64l1.26,0.91L186.24,94.64z"/>
	<path class="st3" d="M197.6,94.64v0.91h3.79C199.81,94.92,199.43,94.86,197.6,94.64z"/>
	<path class="st8" d="M204.34,95.24c-0.06,0.05-0.14,1.01,0.43,0.6C204.83,95.8,204.89,94.84,204.34,95.24z"/>
	<path class="st14" d="M47.35,95.55l1.26,0.91L47.35,95.55z"/>
	<path class="st9" d="M68.81,95.55l1.26,0.91L68.81,95.55 M80.18,95.55l1.26,0.91L80.18,95.55z"/>
	<path class="st4" d="M81.44,95.55l1.26,0.91L81.44,95.55z"/>
	<path class="st14" d="M109.22,95.55l1.26,0.91L109.22,95.55z"/>
	<path class="st7" d="M118.06,95.55l1.26,0.91L118.06,95.55z"/>
	<path class="st1" d="M140.78,95.55l1.26,0.91L140.78,95.55z"/>
	<path class="st15" d="M157.2,95.55l1.26,0.91L157.2,95.55z"/>
	<path class="st10" d="M158.46,95.55l1.26,0.91L158.46,95.55z"/>
	<path class="st8" d="M179.92,95.55l1.26,0.91L179.92,95.55z"/>
	<path class="st11" d="M187.5,95.55l1.26,0.91L187.5,95.55z"/>
	<path class="st15" d="M188.76,95.55l1.26,0.91L188.76,95.55z"/>
	<path class="st13" d="M49.87,96.46l1.26,0.91L49.87,96.46z"/>
	<path class="st9" d="M51.97,96.77c-0.57,0.41,0.77,0.35,0.84,0.31C53.38,96.66,52.05,96.71,51.97,96.77z"/>
	<path class="st15" d="M58.71,96.46l1.26,0.91L58.71,96.46z"/>
	<path class="st4" d="M59.97,96.46l1.26,0.91L59.97,96.46z"/>
	<path class="st7" d="M70.08,96.46l1.26,0.91L70.08,96.46z"/>
	<path class="st14" d="M71.34,96.46l1.26,0.91L71.34,96.46z"/>
	<path class="st4" d="M77.65,96.46l1.26,0.91L77.65,96.46z"/>
	<path class="st8" d="M82.7,96.46v0.91h10.1C89.5,96.37,86.28,96.47,82.7,96.46z"/>
	<path class="st13" d="M95.33,96.46l1.26,0.91L95.33,96.46z"/>
	<path class="st14" d="M96.59,96.46l1.26,0.91L96.59,96.46z"/>
	<path class="st9" d="M102.9,96.46v0.91h3.79C105.11,96.74,104.73,96.69,102.9,96.46z"/>
	<path class="st13" d="M106.69,96.46l1.26,0.91L106.69,96.46z"/>
	<path class="st8" d="M119.32,96.46v0.91h5.05C122.47,96.74,121.45,96.62,119.32,96.46z"/>
	<path class="st14" d="M128.16,96.46l1.26,0.91L128.16,96.46z"/>
	<path class="st13" d="M144.57,96.46l1.26,0.91L144.57,96.46z"/>
	<path class="st14" d="M145.83,96.46l1.26,0.91L145.83,96.46z"/>
	<path class="st4" d="M154.67,96.46l1.26,0.91L154.67,96.46z"/>
	<path class="st10" d="M164.35,96.77c-0.57,0.41,0.77,0.35,0.84,0.31C165.75,96.66,164.43,96.71,164.35,96.77z"/>
	<path class="st11" d="M166.04,96.46l1.26,0.91L166.04,96.46z"/>
	<path class="st3" d="M168.13,96.77c-0.57,0.41,0.77,0.35,0.84,0.31C169.54,96.66,168.21,96.71,168.13,96.77z"/>
	<path class="st8" d="M176.14,96.46l1.26,0.91L176.14,96.46z"/>
	<path class="st7" d="M177.4,96.46l1.26,0.91L177.4,96.46z"/>
	<path class="st12" d="M191.29,96.46l1.26,0.91L191.29,96.46z"/>
	<path class="st3" d="M193.39,96.77c-0.57,0.41,0.77,0.35,0.84,0.31C194.79,96.66,193.47,96.71,193.39,96.77z"/>
	<path class="st14" d="M200.13,96.46l1.26,0.91L200.13,96.46z"/>
	<path class="st11" d="M201.39,96.46l1.26,0.91L201.39,96.46 M123.11,97.37l1.26,0.91L123.11,97.37z"/>
	<path class="st14" d="M126.89,98.28l1.26,0.91L126.89,98.28z"/>
	<path class="st9" d="M121.84,99.19l1.26,0.91L121.84,99.19z"/>
	<path class="st13" d="M119.32,100.11l1.26,0.91L119.32,100.11z"/>
	<path class="st11" d="M125.63,100.11l1.26,0.91L125.63,100.11z"/>
	<path class="st13" d="M117.22,101.62c-0.06,0.05-0.14,1.01,0.43,0.6C117.71,102.18,117.77,101.22,117.22,101.62z"/>
	<path class="st15" d="M118.06,101.02l1.26,0.91L118.06,101.02z"/>
	<path class="st12" d="M124.37,101.02l1.26,0.91L124.37,101.02z"/>
	<path class="st7" d="M123.11,101.93l1.26,0.91L123.11,101.93z"/>
	<path class="st9" d="M118.89,103.15c-0.57,0.41,0.77,0.35,0.84,0.31C120.3,103.04,118.97,103.09,118.89,103.15z"/>
	<path class="st12" d="M120.58,102.84l1.26,0.91L120.58,102.84z"/>
</g>
</svg>
