<svg width="100" height="100" viewBox="0 0 100 100" fill="none" xmlns="http://www.w3.org/2000/svg">
<path fill-rule="evenodd" clip-rule="evenodd" d="M74.51 12.7609L50 0L25.49 12.7609L0.636551 25L0.980003 50L0.636551 75L25.49 87.2391L50 100L74.51 87.2391L99.3634 75L99.02 50L99.3634 25L74.51 12.7609ZM70.64 18.102L50 7L29.36 18.102L8.43078 28.75L8.72 50.5L8.43078 72.25L29.36 82.898L50 94L70.64 82.898L91.5692 72.25L91.28 50.5L91.5692 28.75L70.64 18.102Z" fill="#70737C"/>
<path d="M37.24 63.592L13 52.024V48.616L37.24 37.096V41.128L17.08 50.152V50.44L37.24 59.608V63.592Z" fill="#70737C"/>
<path d="M39.9201 69.064L48.0801 49.048L55.0401 31H59.3121L51.3441 50.536L44.1441 69.064H39.9201Z" fill="#70737C"/>
<path d="M63.0411 63.592V59.608L83.1531 50.44V50.152L63.0411 41.128V37.096L87.2331 48.616V52.024L63.0411 63.592Z" fill="#70737C"/>
</svg>
